<svg width="32" height="32" viewBox="0 0 64 64" xmlns="http://www.w3.org/2000/svg">
  <defs>
    <linearGradient id="dogGradient" x1="0%" y1="0%" x2="100%" y2="100%">
      <stop offset="0%" style="stop-color:#FF6B6B;stop-opacity:1" />
      <stop offset="50%" style="stop-color:#4ECDC4;stop-opacity:1" />
      <stop offset="100%" style="stop-color:#45B7D1;stop-opacity:1" />
    </linearGradient>
    <linearGradient id="earGradient" x1="0%" y1="0%" x2="100%" y2="100%">
      <stop offset="0%" style="stop-color:#FF8E8E;stop-opacity:1" />
      <stop offset="100%" style="stop-color:#FF6B6B;stop-opacity:1" />
    </linearGradient>
    <linearGradient id="noseGradient" x1="0%" y1="0%" x2="100%" y2="100%">
      <stop offset="0%" style="stop-color:#2C3E50;stop-opacity:1" />
      <stop offset="100%" style="stop-color:#34495E;stop-opacity:1" />
    </linearGradient>
  </defs>
  
  <!-- Background circle -->
  <circle cx="32" cy="32" r="30" fill="url(#dogGradient)"/>
  
  <!-- Dog head -->
  <ellipse cx="32" cy="35" rx="20" ry="18" fill="url(#dogGradient)" stroke="#fff" stroke-width="1"/>
  
  <!-- Left ear -->
  <ellipse cx="20" cy="22" rx="6" ry="9" fill="url(#earGradient)" transform="rotate(-20 20 22)"/>
  <ellipse cx="20" cy="22" rx="3" ry="6" fill="#FFB3B3" transform="rotate(-20 20 22)"/>
  
  <!-- Right ear -->
  <ellipse cx="44" cy="22" rx="6" ry="9" fill="url(#earGradient)" transform="rotate(20 44 22)"/>
  <ellipse cx="44" cy="22" rx="3" ry="6" fill="#FFB3B3" transform="rotate(20 44 22)"/>
  
  <!-- Eyes -->
  <circle cx="26" cy="30" r="2" fill="#2C3E50"/>
  <circle cx="38" cy="30" r="2" fill="#2C3E50"/>
  <circle cx="27" cy="29" r="1" fill="#fff"/>
  <circle cx="39" cy="29" r="1" fill="#fff"/>
  
  <!-- Nose -->
  <ellipse cx="32" cy="36" rx="2" ry="1.5" fill="url(#noseGradient)"/>
  
  <!-- Mouth -->
  <path d="M 32 38 Q 28 41 26 40" stroke="#2C3E50" stroke-width="1" fill="none" stroke-linecap="round"/>
  <path d="M 32 38 Q 36 41 38 40" stroke="#2C3E50" stroke-width="1" fill="none" stroke-linecap="round"/>
  
  <!-- Tongue -->
  <ellipse cx="32" cy="43" rx="2" ry="3" fill="#FF6B6B"/>
</svg>