<svg width="400" height="200" viewBox="0 0 400 200" xmlns="http://www.w3.org/2000/svg">
  <defs>
    <linearGradient id="dogGradient" x1="0%" y1="0%" x2="100%" y2="100%">
      <stop offset="0%" style="stop-color:#667eea;stop-opacity:1" />
      <stop offset="100%" style="stop-color:#764ba2;stop-opacity:1" />
    </linearGradient>
    <linearGradient id="earGradient" x1="0%" y1="0%" x2="100%" y2="100%">
      <stop offset="0%" style="stop-color:#8b9ef0;stop-opacity:1" />
      <stop offset="100%" style="stop-color:#667eea;stop-opacity:1" />
    </linearGradient>
    <linearGradient id="noseGradient" x1="0%" y1="0%" x2="100%" y2="100%">
      <stop offset="0%" style="stop-color:#2C3E50;stop-opacity:1" />
      <stop offset="100%" style="stop-color:#34495E;stop-opacity:1" />
    </linearGradient>
    <linearGradient id="textGradient" x1="0%" y1="0%" x2="100%" y2="0%">
      <stop offset="0%" style="stop-color:#2C3E50;stop-opacity:1" />
      <stop offset="50%" style="stop-color:#667eea;stop-opacity:1" />
      <stop offset="100%" style="stop-color:#764ba2;stop-opacity:1" />
    </linearGradient>
    <filter id="shadow" x="-50%" y="-50%" width="200%" height="200%">
      <feDropShadow dx="2" dy="4" stdDeviation="3" flood-color="#000000" flood-opacity="0.3"/>
    </filter>
    <filter id="textShadow" x="-50%" y="-50%" width="200%" height="200%">
      <feDropShadow dx="1" dy="2" stdDeviation="2" flood-color="#000000" flood-opacity="0.2"/>
    </filter>
  </defs>
  
  <!-- Background circle for logo -->
  <circle cx="100" cy="100" r="80" fill="url(#dogGradient)" filter="url(#shadow)"/>
  
  <!-- Dog head -->
  <ellipse cx="100" cy="110" rx="60" ry="50" fill="url(#dogGradient)" stroke="#fff" stroke-width="2"/>
  
  <!-- Left ear -->
  <ellipse cx="60" cy="70" rx="18" ry="25" fill="url(#earGradient)" transform="rotate(-20 60 70)"/>
  <ellipse cx="60" cy="70" rx="10" ry="18" fill="#FFB3B3" transform="rotate(-20 60 70)"/>
  
  <!-- Right ear -->
  <ellipse cx="140" cy="70" rx="18" ry="25" fill="url(#earGradient)" transform="rotate(20 140 70)"/>
  <ellipse cx="140" cy="70" rx="10" ry="18" fill="#FFB3B3" transform="rotate(20 140 70)"/>
  
  <!-- Eyes -->
  <circle cx="85" cy="95" r="6" fill="#2C3E50"/>
  <circle cx="115" cy="95" r="6" fill="#2C3E50"/>
  <circle cx="87" cy="93" r="2" fill="#fff"/>
  <circle cx="117" cy="93" r="2" fill="#fff"/>
  
  <!-- Nose -->
  <ellipse cx="100" cy="115" rx="4" ry="3" fill="url(#noseGradient)"/>
  
  <!-- Mouth -->
  <path d="M 100 120 Q 90 125 85 123" stroke="#2C3E50" stroke-width="2" fill="none" stroke-linecap="round"/>
  <path d="M 100 120 Q 110 125 115 123" stroke="#2C3E50" stroke-width="2" fill="none" stroke-linecap="round"/>
  
  <!-- Tongue -->
  <ellipse cx="100" cy="130" rx="6" ry="8" fill="#667eea"/>
  
  <!-- Paws -->
  <circle cx="80" cy="150" r="8" fill="url(#dogGradient)"/>
  <circle cx="100" cy="155" r="8" fill="url(#dogGradient)"/>
  <circle cx="120" cy="150" r="8" fill="url(#dogGradient)"/>
  
  <!-- Paw details -->
  <circle cx="80" cy="150" r="4" fill="#fff" opacity="0.3"/>
  <circle cx="100" cy="155" r="4" fill="#fff" opacity="0.3"/>
  <circle cx="120" cy="150" r="4" fill="#fff" opacity="0.3"/>
  
  <!-- App Name -->
  <text x="220" y="80" font-family="Arial, sans-serif" font-size="48" font-weight="bold" fill="url(#textGradient)" filter="url(#textShadow)">Doggy</text>
  
  <!-- Subtitle -->
  <text x="220" y="110" font-family="Arial, sans-serif" font-size="18" fill="#7F8C8D" filter="url(#textShadow)">Explore Dog Breeds</text>
  
  <!-- Decorative elements -->
  <g opacity="0.6">
    <circle cx="350" cy="50" r="3" fill="#667eea"/>
    <circle cx="360" cy="60" r="2" fill="#764ba2"/>
    <circle cx="340" cy="70" r="2" fill="#8b9ef0"/>
    <circle cx="355" cy="80" r="3" fill="#667eea"/>
  </g>
</svg>
